<?xml version="1.0" encoding="utf-8"?>
<!-- Generator: Adobe Illustrator 16.0.0, SVG Export Plug-In . SVG Version: 6.00 Build 0)  -->
<!DOCTYPE svg PUBLIC "-//W3C//DTD SVG 1.1//EN" "http://www.w3.org/Graphics/SVG/1.1/DTD/svg11.dtd">
<svg version="1.1" id="Capa_1" xmlns="http://www.w3.org/2000/svg" xmlns:xlink="http://www.w3.org/1999/xlink" x="0px" y="0px"
	 width="601.658px" height="132.596px" viewBox="0 0 601.658 132.596" enable-background="new 0 0 601.658 132.596"
	 xml:space="preserve">
<g>
	<g>
		<path fill="#1E74F7" d="M74.524,90.571c-6.701,0-12.196-2.287-16.332-6.798c-4.045-4.392-6.099-10.122-6.099-17.025V33.892h8.572
			v32.856c0,4.748,1.257,8.42,3.839,11.224c2.486,2.713,5.761,4.027,10.02,4.027c4.277,0,7.59-1.322,10.126-4.045
			c2.636-2.811,3.913-6.474,3.913-11.206V34.446h8.572v32.302c0,6.916-2.094,12.655-6.223,17.06
			C86.734,88.293,81.217,90.571,74.524,90.571z"/>
	</g>
</g>
<g>
	<g>
		<g>
			<path fill="#FF6D2E" d="M74.575,117.667v-8.573c13.009,0,23.178-4.118,31.085-12.591c8.017-8.553,11.91-19.521,11.91-33.537
				h8.572c0,16.07-4.784,29.324-14.221,39.392C102.443,112.514,89.876,117.667,74.575,117.667z"/>
		</g>
	</g>
</g>
<g>
	<g>
		<g>
			<path fill="#4DC3FF" d="M74.853,104.022c-11.261,0-20.526-3.805-27.538-11.308C40.371,85.295,36.85,75.561,36.85,63.783V45.882
				h8.572v17.901c0,9.665,2.667,17.213,8.153,23.076c5.403,5.782,12.362,8.591,21.277,8.591c8.896,0,15.793-2.801,21.085-8.563
				c5.396-5.859,8.019-13.417,8.019-23.104h8.571l-0.002,0.614c-0.118,11.497-3.575,21.013-10.277,28.293
				C95.342,100.209,86.125,104.022,74.853,104.022z"/>
		</g>
	</g>
</g>
<path fill="#1E74F7" d="M160.002,79.893c-3.281-3.327-4.922-8.25-4.922-14.766V35.321h5.576v30.288c0,4.773,1.17,8.376,3.51,10.807
	c2.342,2.433,5.806,3.649,10.395,3.649c4.544,0,7.975-1.217,10.293-3.649c2.316-2.431,3.476-6.033,3.476-10.807V35.321h5.645v29.807
	c0,6.47-1.652,11.381-4.957,14.73c-3.304,3.352-8.122,5.026-14.456,5.026C168.135,84.884,163.283,83.219,160.002,79.893z"/>
<path fill="#1E74F7" d="M204.024,35.321h14.795c7.849,0,13.917,2.122,18.207,6.367c4.292,4.245,6.438,10.268,6.438,18.07
	c0,7.847-2.146,13.905-6.438,18.172c-4.29,4.268-10.358,6.402-18.207,6.402h-14.795V35.321z M218.475,79.514
	c6.333,0,11.093-1.652,14.283-4.957c3.189-3.304,4.784-8.236,4.784-14.799c0-13.08-6.355-19.619-19.067-19.619h-8.807v39.375
	H218.475z"/>
<path fill="#1E74F7" d="M280.976,49.708v34.625h-5.507v-6.264c-1.009,2.158-2.536,3.82-4.578,4.99
	c-2.041,1.17-4.415,1.756-7.124,1.756c-3.075,0-5.771-0.734-8.088-2.202s-4.108-3.546-5.369-6.23
	c-1.263-2.686-1.893-5.817-1.893-9.397c0-3.579,0.641-6.734,1.927-9.464c1.284-2.73,3.086-4.854,5.403-6.368s4.991-2.271,8.02-2.271
	c2.709,0,5.069,0.597,7.092,1.789c2.018,1.194,3.555,2.868,4.61,5.025v-5.989H280.976z M272.716,76.728
	c1.834-2.317,2.753-5.612,2.753-9.88c0-4.267-0.919-7.548-2.753-9.843c-1.836-2.294-4.452-3.442-7.848-3.442
	c-3.396,0-6.047,1.182-7.95,3.546c-1.905,2.364-2.856,5.656-2.856,9.877c0,4.223,0.938,7.481,2.821,9.775
	c1.882,2.295,4.543,3.442,7.985,3.442C268.264,80.203,270.88,79.045,272.716,76.728z"/>
<path fill="#1E74F7" d="M298.325,54.113v18.93c0,2.572,0.528,4.372,1.585,5.405c1.054,1.031,2.546,1.549,4.475,1.549
	c1.284,0,2.523-0.206,3.716-0.62v4.75c-1.423,0.458-3.028,0.688-4.818,0.688c-3.305,0-5.885-0.93-7.744-2.787
	c-1.858-1.86-2.787-4.601-2.787-8.227V54.113h-6.747v-4.405h6.747v-8.88l5.574-1.996v10.876h9.914v4.405H298.325z"/>
<path fill="#1E74F7" d="M344.586,49.708v34.625h-5.507v-6.264c-1.01,2.158-2.536,3.82-4.578,4.99s-4.416,1.756-7.124,1.756
	c-3.075,0-5.771-0.734-8.088-2.202c-2.318-1.468-4.108-3.546-5.37-6.23c-1.263-2.686-1.894-5.817-1.894-9.397
	c0-3.579,0.643-6.734,1.929-9.464c1.284-2.73,3.086-4.854,5.403-6.368c2.316-1.515,4.99-2.271,8.02-2.271
	c2.708,0,5.069,0.597,7.091,1.789c2.019,1.194,3.556,2.868,4.611,5.025v-5.989H344.586z M336.327,76.728
	c1.835-2.317,2.753-5.612,2.753-9.88c0-4.267-0.918-7.548-2.753-9.843c-1.837-2.294-4.452-3.442-7.848-3.442
	c-3.396,0-6.047,1.182-7.951,3.546c-1.904,2.364-2.857,5.656-2.857,9.877c0,4.223,0.94,7.481,2.823,9.775
	c1.882,2.295,4.543,3.442,7.985,3.442C331.875,80.203,334.49,79.045,336.327,76.728z"/>
<path fill="#4DC3FF" d="M379.004,51.153c2.341,1.515,4.153,3.638,5.438,6.368c1.284,2.73,1.929,5.886,1.929,9.464
	c0,3.58-0.645,6.712-1.929,9.397c-1.285,2.684-3.086,4.762-5.403,6.23c-2.318,1.468-5.015,2.202-8.088,2.202
	c-2.709,0-5.07-0.596-7.091-1.791c-2.02-1.193-3.557-2.889-4.612-5.094v21.271h-5.576V59.414c0-3.58-0.184-6.815-0.549-9.706h5.299
	l0.551,6.676c0.964-2.385,2.488-4.232,4.577-5.541c2.09-1.308,4.556-1.961,7.401-1.961C373.98,48.882,376.665,49.638,379.004,51.153
	z M377.8,76.76c1.858-2.293,2.79-5.552,2.79-9.775c0-4.221-0.943-7.513-2.824-9.877c-1.882-2.364-4.498-3.546-7.847-3.546
	c-3.443,0-6.083,1.148-7.917,3.442c-1.836,2.295-2.754,5.576-2.754,9.843c0,4.268,0.918,7.563,2.754,9.88
	c1.834,2.318,4.474,3.475,7.917,3.475C373.315,80.203,375.942,79.055,377.8,76.76z"/>
<path fill="#4DC3FF" d="M423.75,49.708v34.625h-5.508v-6.264c-1.01,2.158-2.536,3.82-4.576,4.99c-2.044,1.17-4.42,1.756-7.127,1.756
	c-3.074,0-5.771-0.734-8.088-2.202c-2.318-1.468-4.107-3.546-5.37-6.23c-1.263-2.686-1.892-5.817-1.892-9.397
	c0-3.579,0.641-6.734,1.927-9.464c1.285-2.73,3.087-4.854,5.403-6.368c2.318-1.515,4.991-2.271,8.02-2.271
	c2.707,0,5.07,0.597,7.092,1.789c2.018,1.194,3.556,2.868,4.611,5.025v-5.989H423.75z M415.49,76.728
	c1.835-2.317,2.753-5.612,2.753-9.88c0-4.267-0.918-7.548-2.753-9.843c-1.836-2.294-4.453-3.442-7.847-3.442
	c-3.397,0-6.048,1.182-7.951,3.546c-1.906,2.364-2.857,5.656-2.857,9.877c0,4.223,0.941,7.481,2.822,9.775
	c1.881,2.295,4.543,3.442,7.986,3.442C411.037,80.203,413.654,79.045,415.49,76.728z"/>
<path fill="#4DC3FF" d="M451.696,49.294l-0.138,5.094c-1.058-0.366-2.271-0.549-3.649-0.549c-3.351,0-5.841,1.044-7.469,3.131
	c-1.629,2.09-2.444,4.625-2.444,7.607v19.756h-5.575V59.414c0-3.58-0.185-6.815-0.551-9.706h5.3l0.552,6.402
	c0.871-2.341,2.271-4.13,4.199-5.37c1.927-1.239,4.13-1.858,6.607-1.858C449.674,48.882,450.732,49.019,451.696,49.294z"/>
<path fill="#4DC3FF" d="M466.979,54.113v18.93c0,2.572,0.526,4.372,1.582,5.405c1.056,1.031,2.548,1.549,4.475,1.549
	c1.285,0,2.523-0.206,3.719-0.62v4.75c-1.425,0.458-3.029,0.688-4.819,0.688c-3.304,0-5.886-0.93-7.745-2.787
	c-1.857-1.86-2.787-4.601-2.787-8.227V54.113h-6.747v-4.405h6.747v-8.88l4.746-1.996l0.83,10.876h9.912v4.405H466.979z"/>
<path fill="#4DC3FF" d="M512.618,62.581v21.752h-5.574V62.855c0-3.212-0.645-5.563-1.929-7.056c-1.285-1.49-3.304-2.237-6.058-2.237
	c-3.213,0-5.782,0.987-7.709,2.96c-1.928,1.974-2.891,4.635-2.891,7.985v19.825h-5.577V59.414c0-3.58-0.185-6.815-0.551-9.706h5.301
	l0.551,6.195c1.056-2.248,2.638-3.98,4.749-5.197c2.11-1.216,4.521-1.824,7.229-1.824C508.464,48.882,512.618,53.449,512.618,62.581
	z"/>
<path fill="#4DC3FF" d="M549.583,66.848H524.18c0.045,4.406,1.066,7.734,3.063,9.983c1.997,2.249,4.897,3.372,8.708,3.372
	c4.038,0,7.755-1.354,11.151-4.062l1.86,4.062c-1.516,1.423-3.455,2.548-5.818,3.374c-2.364,0.826-4.784,1.238-7.263,1.238
	c-5.414,0-9.66-1.596-12.735-4.785c-3.074-3.188-4.611-7.56-4.611-13.113c0-3.533,0.688-6.666,2.065-9.396
	c1.376-2.73,3.304-4.854,5.782-6.368s5.301-2.271,8.468-2.271c4.588,0,8.192,1.504,10.807,4.508
	c2.615,3.006,3.925,7.148,3.925,12.425V66.848z M527.863,55.833c-1.813,1.745-2.972,4.199-3.476,7.366h20.169
	c-0.274-3.258-1.228-5.735-2.856-7.435c-1.628-1.697-3.889-2.547-6.781-2.547C532.029,53.218,529.676,54.091,527.863,55.833z"/>
<path fill="#4DC3FF" d="M574.774,49.294l-0.138,5.094c-1.057-0.366-2.271-0.549-3.647-0.549c-3.352,0-5.841,1.044-7.47,3.131
	c-1.63,2.09-2.443,4.625-2.443,7.607v19.756H555.5V59.414c0-3.58-0.185-6.815-0.552-9.706h5.302l0.55,6.402
	c0.871-2.341,2.271-4.13,4.199-5.37c1.928-1.239,4.131-1.858,6.609-1.858C572.755,48.882,573.81,49.019,574.774,49.294z"/>
</svg>
