<?xml version="1.0" encoding="utf-8"?>
<!-- Generator: Adobe Illustrator 16.0.0, SVG Export Plug-In . SVG Version: 6.00 Build 0)  -->
<!DOCTYPE svg PUBLIC "-//W3C//DTD SVG 1.1//EN" "http://www.w3.org/Graphics/SVG/1.1/DTD/svg11.dtd">
<svg version="1.1" id="Capa_1" xmlns="http://www.w3.org/2000/svg" xmlns:xlink="http://www.w3.org/1999/xlink" x="0px" y="0px"
	 width="122.099px" height="123.205px" viewBox="0 0 122.099 123.205" enable-background="new 0 0 122.099 123.205"
	 xml:space="preserve">
<g>
	<g>
		<path fill="#1E74F7" d="M53.22,82.284c-6.701,0-12.196-2.287-16.332-6.798c-4.045-4.392-6.099-10.122-6.099-17.025V25.604h8.572
			V58.46c0,4.748,1.257,8.42,3.839,11.224c2.486,2.713,5.761,4.027,10.02,4.027c4.277,0,7.59-1.322,10.126-4.045
			c2.636-2.811,3.913-6.474,3.913-11.206V26.159h8.572V58.46c0,6.916-2.094,12.655-6.223,17.06
			C65.43,80.006,59.914,82.284,53.22,82.284z"/>
	</g>
</g>
<g>
	<g>
		<g>
			<path fill="#FF6D2E" d="M53.271,109.379v-8.573c13.009,0,23.178-4.118,31.085-12.591c8.017-8.553,11.91-19.521,11.91-33.537
				h8.572c0,16.07-4.784,29.324-14.221,39.392C81.139,104.227,68.573,109.379,53.271,109.379z"/>
		</g>
	</g>
</g>
<g>
	<g>
		<g>
			<path fill="#4DC3FF" d="M53.549,95.735c-11.261,0-20.526-3.805-27.538-11.308c-6.944-7.419-10.465-17.154-10.465-28.931V37.595
				h8.572v17.901c0,9.665,2.667,17.213,8.153,23.076c5.403,5.782,12.362,8.591,21.277,8.591c8.896,0,15.793-2.801,21.085-8.563
				c5.396-5.859,8.019-13.417,8.019-23.104h8.571l-0.002,0.614c-0.118,11.497-3.575,21.013-10.277,28.293
				C74.039,91.922,64.821,95.735,53.549,95.735z"/>
		</g>
	</g>
</g>
</svg>
